<svg width="337" height="350.15662" xmlns="http://www.w3.org/2000/svg">
 <defs>
  <linearGradient id="linearGradientSk30czy401f5n" y2="0.5" x2="1" y1="0.5" x1="0">
   <stop stop-color="#74d14c" offset="0%"/>
   <stop stop-color="#74d14c" offset="100%"/>
  </linearGradient>
  <linearGradient id="linearGradientSk30czy401f5q" y2="0.5" x2="1" y1="0.5" x1="0">
   <stop stop-color="#083b66" offset="0%"/>
   <stop stop-color="#083b66" offset="100%"/>
  </linearGradient>
  <linearGradient id="linearGradientSk30czy401fg2" y2="0.5" x2="1" y1="0.5" x1="0">
   <stop stop-color="#01233f" offset="0%"/>
   <stop stop-color="#01233f" offset="54.03%"/>
   <stop stop-color="#01233f" offset="100%"/>
  </linearGradient>
  <linearGradient id="linearGradientSk30czy401fgl" y2="0.5" x2="1" y1="0.5" x1="0">
   <stop stop-color="#74d14c" offset="0%"/>
   <stop stop-color="#74d14c" offset="100%"/>
  </linearGradient>
  <linearGradient id="linearGradientSk30czy401fgo" y2="0.5" x2="1" y1="0.5" x1="0">
   <stop stop-color="#74d14c" offset="0%"/>
   <stop stop-color="#083b66" offset="100%"/>
  </linearGradient>
  <linearGradient id="linearGradientSk30czy401fgr" y2="0.5" x2="1" y1="0.5" x1="0">
   <stop stop-color="#083b66" offset="0%"/>
   <stop stop-color="#01233f" offset="100%"/>
  </linearGradient>
 </defs>
 <g>
  <title>background</title>
  <rect fill="none" id="canvas_background" height="352.15662" width="339" y="-1" x="-1"/>
 </g>
 <g>
  <title>Layer 1</title>
  <g id="svg_86" transform="matrix(1,0,0,1,414,120) " class="selector-part">
   <rect id="svg_87" fill="rgba(255,255,255,0)" height="257" width="138" y="-114" x="-340"/>
  </g>
  <g id="svg_88" transform="matrix(1.2812,0,0,1.2812,364.6104,131.2317) " class="svg-clip svg-visible">
   <rect id="svg_89" class="svg-hitbox" fill="none" height="186" width="187" y="-88.97908" x="-265.376198"/>
   <g id="svg_11">
    <svg y="-88.97908" x="-265.376198" id="svg_90" class="thumb" viewBox="-5.131860901213205,-5,187.0337218024264,186.77" height="186.77" width="187.033722">
     <desc>Created with Snap</desc>

     <g id="svg_91">
      <circle id="svg_92" fill="url('#linearGradientSk30czy401fgo')" r="88.385" cy="88.385" cx="88.385"/>
     </g>
    </svg>
   </g>
  </g>
  <g id="svg_93" transform="matrix(4.3689,0,0,4.3689,330.869,97.9539) " class="svg-clip svg-visible">
   <rect id="svg_94" class="svg-hitbox" fill="none" height="67" width="67" y="-26.093524" x="-77.822797"/>
   <g id="svg_12">
    <svg y="-26.093524" x="-77.822797" id="svg_95" class="thumb" viewBox="6.5,6.5,67,67" height="67" width="67">
     <desc>Created with Snap</desc>

     <g id="svg_96">
      <path id="svg_97" fill="url('#linearGradientSk30czy401fgl')" d="m40,68.5c-15.7,0 -28.5,-12.8 -28.5,-28.5s12.8,-28.5 28.5,-28.5s28.5,12.8 28.5,28.5s-12.8,28.5 -28.5,28.5zm0,-55c-14.6,0 -26.5,11.9 -26.5,26.5s11.9,26.5 26.5,26.5s26.5,-11.9 26.5,-26.5s-11.9,-26.5 -26.5,-26.5z"/>
     </g>
    </svg>
   </g>
  </g>
  <g id="svg_98" transform="matrix(3.1562,0,0,2.7606,331.3631,391.4537) " class="svg-clip svg-visible">
   <rect id="svg_99" class="svg-hitbox" fill="none" height="29" width="41" y="-41.295371" x="-107.724477"/>
   <g id="svg_13">
    <svg y="-41.295371" x="-107.724477" id="svg_100" viewBox="-4.46885697703866,21.357000000000003,41.55485697703866,29.262213592489235" height="29.262214" width="41.554857">
     <desc>Created with Snap</desc>

     <g id="svg_101">
      <path id="svg_102" d="m31.197,27.484l-3.894,2.757l-0.179,0.127l-15.056,10.395c-1.024,0.727 -2.395,0.394 -3.053,-0.738l-6.783,-11.694l-0.686,0.473c-1.022,0.725 -1.324,2.242 -0.667,3.373l7.145,12.319c0.658,1.132 2.029,1.465 3.053,0.738l15.059,-10.394l0.178,-0.127l3.893,-2.758c0.514,-0.357 1.035,-1.193 1.158,-1.849l0.721,-3.749c-0.229,0.456 -0.555,0.894 -0.889,1.127z" fill="url('#linearGradientSk30czy401f5n')"/>
     </g>
    </svg>
   </g>
  </g>
  <g id="svg_103" transform="matrix(3.1562,0,0,2.7606,338.6104,331.8243) " class="svg-clip svg-visible">
   <rect id="svg_104" class="svg-hitbox" fill="none" height="43" width="56" y="-41.295371" x="-107.724477"/>
   <g id="svg_14">
    <svg y="-41.295371" x="-107.724477" id="svg_105" viewBox="-2.489104477227117,-0.6199780910078632,56.95659486171992,43.8541455164526" height="43.854146" width="56.956595">
     <desc>Created with Snap</desc>

     <g id="svg_106">
      <path id="svg_107" d="m49.24,4.607c-1.012,-0.964 -5.137,1.237 -7.986,4.814c-2.135,2.677 -4.471,3.854 -6.938,4.466c-0.018,-0.033 -0.029,-0.076 -0.046,-0.106l-1.87,-3.225c-0.331,-0.565 -1.078,-1.15 -1.677,-1.296l-6.06,-1.508c-0.592,-0.146 -1.498,0.027 -2.009,0.39l-3.891,2.757l-0.176,0.122l-15.061,10.398c-1.023,0.725 -1.324,2.241 -0.667,3.373l7.145,12.318c0.658,1.133 2.029,1.466 3.053,0.739l15.059,-10.395l0.178,-0.126l3.894,-2.758c0.513,-0.358 1.034,-1.193 1.158,-1.85l1.29,-6.715c0.068,-0.354 0.047,-0.805 -0.033,-1.236c4.479,-0.666 10.034,-2.272 13.201,-6.351c1.905,-2.452 1.833,-3.426 1.436,-3.811zm-19.193,12.529c-0.936,0.66 -2.176,0.361 -2.776,-0.668c-0.601,-1.035 -0.327,-2.41 0.607,-3.07c0.932,-0.663 2.179,-0.365 2.778,0.671c0.072,0.127 0.133,0.261 0.181,0.396c-0.411,0.047 -0.823,0.09 -1.237,0.133l-1.813,0.197l0.034,0.311l0.039,-0.004l0.025,0.217c0.156,-0.019 0.482,-0.033 0.92,-0.048c0.551,-0.021 1.297,-0.053 2.156,-0.11c0.032,0.766 -0.287,1.531 -0.914,1.975zm0.866,-2.367c0.005,0.027 0.015,0.053 0.021,0.08c-0.584,0.039 -1.11,0.066 -1.559,0.086l0.25,-0.026c0.433,-0.046 0.861,-0.092 1.288,-0.14zm16.675,-6.553c-3.114,4.016 -8.621,5.594 -13.059,6.25c-0.027,-0.102 -0.055,-0.196 -0.088,-0.29c2.49,-0.627 4.853,-1.829 7.026,-4.55c2.808,-3.521 6.776,-5.551 7.585,-4.781c0.155,0.147 0.504,0.831 -1.464,3.371z" fill="url('#linearGradientSk30czy401f5q')"/>
     </g>
    </svg>
   </g>
  </g>
  <g id="svg_108" transform="matrix(2.4179,0,0,2.47,419.2261,126.3322) " class="svg-clip svg-visible">
   <rect id="svg_109" class="svg-hitbox" fill="none" height="100" width="53" y="-46.153847" x="-140.617899"/>
   <g id="svg_15">
    <svg y="-46.153847" x="-140.617899" id="svg_110" viewBox="23.024999999999995,0,53.96281959207124,100" height="100" width="53.96282">
     <desc>Created with Snap</desc>

     <g id="svg_111">
      <path id="svg_112" fill="url('#linearGradientSk30czy401fgr')" d="m70.2,64.7c-2.8,-11.4 -5.3,-14.6 -5.3,-14.6c5.4,-8.4 5.9,-32.9 5.9,-32.9l-14.5,-5.6l-0.6,-6.6l-5.7,0l-5.7,0l-0.6,6.6l-14.5,5.6c0,0 0.5,24.5 6,32.9c0,0 -2.5,3.2 -5.3,14.6c-3,11.4 -1.5,13.3 -1.5,13.3s10.3,2 18.6,2.3l0,14.7l5.7,0l0,-14.7c8.3,-0.3 18.9,-2.3 18.9,-2.3s1.5,-1.9 -1.4,-13.3z"/>
     </g>
    </svg>
   </g>
  </g>
  <g id="svg_113" transform="matrix(0.7252,0,0,0.7252,563,363) " class="svg-text svg-visible">
   <path id="svg_114" d="m-618.909438,-52.198017c130.07324,-1 170.07324,-1 300.14648,0" fill="none"/>
   <path id="svg_115" fill="url('#linearGradientSk30czy401fg2')" d="m-577.449438,-92.498017l0,0l-0.05,-13.38q0,-2.74 -0.88,-3.71l0,0q-1.61,-1.81 -5.96,-1.81l0,0l-7.71,0q-6.06,0 -6.65,3.42l0,0q-0.14,0.98 -0.14,2.1l0,0l-0.05,14.65q0,18.94 1.95,23.73l0,0q0.78,1.85 2.44,4.05l0,0l-18.31,0q1.57,-3.71 1.83,-6.2q0.27,-2.49 0.57,-6.15l0,0q0.53,-7.67 0.53,-17.53q0,-9.87 -0.05,-13.6q-0.04,-3.74 -0.09,-7.3l0,0q-0.35,-14.8 -0.93,-17.75q-0.59,-2.95 -0.98,-3.98l0,0l-0.88,-2.2l18.31,0q-3.51,3.91 -3.9,10.55l0,0q-0.15,2 -0.15,4.2q0,2.2 0.42,3.44q0.41,1.25 1.39,1.83l0,0q1.32,0.88 6.2,0.88l0,0l4.64,0q4.98,0 6.15,-0.73l0,0q1.95,-1.27 1.95,-5.52l0,0q0,-10.4 -4.1,-14.65l0,0l18.31,0q-1.46,3.23 -1.78,5.96q-0.32,2.73 -0.46,5.25q-0.15,2.51 -0.3,5.83q-0.14,3.32 -0.24,6.89l0,0q-0.15,8.3 -0.15,15.04l0,0q0,27.39 2.05,33.54l0,0q0.35,1.03 0.88,2.2l0,0l-18.31,0q2.44,-3.27 2.98,-5.64q0.54,-2.37 0.83,-5.59l0,0q0.64,-6.2 0.64,-17.82zm61.1775,2.98l0,0l-0.15,9.37q0,8.74 1.61,11.91l0,0q0.98,1.91 2.3,2.93l0,0l2.29,1.86l-14.16,0l-1.51,-5.66q-5.52,6.64 -15.72,6.64l0,0q-5.81,0 -9.38,-3.91l0,0q-3.12,-3.52 -3.12,-8.3q0,-4.79 2.27,-8.35q2.27,-3.56 5.98,-5.91l0,0q7.32,-4.54 18.41,-4.73l0,0l0,-0.54q0,-11.87 -3.66,-13.92l0,0q-1.32,-0.73 -3.4,-0.73q-2.07,0 -4.12,1.37q-2.05,1.36 -3.71,3.51l0,0q-3.33,4.35 -4.74,10.26l0,0q-4.35,-2.59 -4.35,-9.92l0,0q0,-2.97 0.78,-6.69l0,0q1.86,0 3.52,-0.53l0,0l3.76,-1.17q5.52,-1.71 10.79,-1.71q5.27,0 8.42,1.56q3.15,1.56 4.91,4.64l0,0q2.98,5.22 2.98,18.02zm-27.3,15.82q0,3.02 1.4,4.68q1.39,1.66 3.49,1.66q2.1,0 4.05,-1.09q1.95,-1.1 3.52,-3.01l0,0q3.66,-4.34 3.66,-10.2l0,0l0,-7.23q-6.84,0.64 -11.28,4.54l0,0q-4.84,4.2 -4.84,10.65l0,0zm55.1282,10.25l-14.01,0q2.25,-7.71 2.25,-26.51l0,0q0,-13.38 -2.35,-18.27l0,0q-0.58,-1.22 -1.32,-2.29l0,0l-1.61,-2.25l16.95,0q-0.74,2.44 -0.98,4.59l0,0l-0.39,3.52q5.91,-9.08 15.04,-9.08l0,0q5.91,0 9.23,4.59l0,0q3.22,4.49 3.22,12.16l0,0l0,5.22q0,13.43 0.24,16.41q0.25,2.97 0.39,4.54q0.15,1.56 0.35,2.78l0,0q0.34,2.3 1.02,4.59l0,0l-14.31,0q2.25,-7.71 2.25,-26.51l0,0q0,-7.52 -0.95,-10.31q-0.95,-2.78 -2.27,-3.98q-1.32,-1.19 -3.47,-1.19l0,0q-3.95,0 -7.18,3.12l0,0q-2.78,2.69 -4.25,6.84l0,0q-0.09,1.32 -0.09,2.73l0,0l0,2.79q0,18.8 2.24,26.51l0,0zm65.38281,-1.17l0,0q-4.74,2.15 -9.33,2.15q-4.58,0 -7.61,-1.18q-3.03,-1.17 -5.18,-3.41l0,0q-4.49,-4.69 -4.49,-12.94l0,0q0,-15.92 9.13,-24.81l0,0q8.15,-7.96 19.63,-7.96l0,0l11.13,0q-1.36,4.74 -1.56,9.09q-0.2,4.34 -0.27,7.1q-0.07,2.76 -0.12,5.59l0,0q-0.1,5.66 -0.1,11.57q0,5.91 -0.93,11.45q-0.92,5.55 -2.46,9.7q-1.54,4.15 -3.52,7.08q-1.98,2.93 -4.12,4.93l0,0q-3.52,3.27 -8.16,4.78l0,0q-0.97,-0.39 -1.88,-1.41q-0.9,-1.03 -1.1,-2.01l0,0q5.57,-2.24 8.84,-11.18l0,0q1.27,-3.46 2.1,-8.54zm1.08,-15.14l0,0l0.14,-14.65q0,-8.83 -0.63,-13.38l0,0q-6.94,1.37 -10.94,8.21l0,0q-4.05,6.98 -4.05,17.62l0,0q0,6.6 1,9.33q1,2.73 2.39,4q1.39,1.27 3.37,1.27q1.98,0 3.49,-0.78q1.51,-0.78 2.69,-2.34l0,0q2.54,-3.37 2.54,-9.28zm55.95157,-0.29l0,0q1.76,1.17 1.76,4.08q0,2.9 -0.78,5.1q-0.78,2.2 -2.74,4.1l0,0q-4.39,4.3 -13.38,4.3l0,0q-10.45,0 -15.91,-7.72l0,0q-4.84,-6.88 -4.84,-18.6l0,0q0,-11.82 6.55,-18.56l0,0q6.2,-6.39 16.79,-6.39l0,0q7.38,0 11.53,4.29l0,0q3.27,3.42 3.27,7.89q0,4.47 -1.74,8.06q-1.73,3.59 -5.1,6.17l0,0q-6.93,5.37 -19.38,5.67l0,0q1.02,9.81 6.15,13.13l0,0q1.85,1.17 4.93,1.17q3.08,0 6.54,-3.22q3.47,-3.22 6.35,-9.47zm-24.27,-7.77l0,1.52q15.43,-1.03 15.43,-14.94l0,0q0,-5.23 -3.12,-7.03l0,0q-1.08,-0.59 -2.83,-0.59q-1.76,0 -3.54,1.07q-1.79,1.08 -3.1,3.52l0,0q-2.84,5.32 -2.84,16.45l0,0zm52.34968,24.37l-14.41,0q2.25,-7.71 2.25,-26.51l0,0q0,-13.38 -2.15,-18.27l0,0q-0.88,-2 -3.12,-4.54l0,0l17.33,0q-0.88,3.08 -1.42,8.45l0,0q4.59,-5.76 12.8,-8.15l0,0q3.51,-1.03 5.12,-3.23l0,0q1.61,3.86 1.61,6.64q0,2.79 -0.29,5.16q-0.29,2.36 -0.88,4.61l0,0q-1.27,4.83 -3.37,7.52l0,0q-1.8,-9.52 -5.61,-11.13l0,0q-4.4,-1.91 -8.6,5.17l0,0q-0.87,1.47 -1.46,3.13l0,0q-0.05,1.12 -0.05,2.29q0,1.17 0,2.35l0,0q0,18.8 2.25,26.51l0,0z"/>
   <rect id="svg_116" height="0" width="0" y="-157.198017" x="-468.836198"/>
  </g>
  <g id="svg_117">
   <rect id="svg_118" stroke="#ff8800" fill="rgba(255,136,0,0.1)" height="0" width="0" y="0" x="0"/>
  </g>
  <g id="svg_119" class="selector-part">
   <rect id="svg_120" stroke="#3399ff" fill="rgba(168,202,236,0.5)" height="0" width="0" y="0" x="0"/>
  </g>
 </g>
</svg>