<svg width="533" height="493" xmlns="http://www.w3.org/2000/svg">
 <defs>
  <linearGradient id="linearGradientSk30czy4017go" y2="0.5" x2="1" y1="0.5" x1="0">
   <stop stop-color="#000000" offset="0%"/>
   <stop stop-color="#000000" offset="100%"/>
  </linearGradient>
  <linearGradient id="linearGradientSk30czy4017gu" y2="0.5" x2="1" y1="0.5" x1="0">
   <stop stop-color="#000000" offset="0%"/>
   <stop stop-color="#000000" offset="100%"/>
  </linearGradient>
  <linearGradient id="linearGradientSk30czy4017gx" y2="0.5" x2="1" y1="0.5" x1="0">
   <stop stop-color="#000000" offset="0%"/>
   <stop stop-color="#000000" offset="100%"/>
  </linearGradient>
  <linearGradient id="linearGradientSk30czy4017i0" y2="0.5" x2="1" y1="0.5" x1="0">
   <stop stop-color="#000000" offset="0%"/>
   <stop stop-color="#000000" offset="100%"/>
  </linearGradient>
  <linearGradient id="linearGradientSk30czy4017q7" y2="0.5" x2="1" y1="0.5" x1="0">
   <stop stop-color="#000000" offset="0%"/>
   <stop stop-color="#000000" offset="100%"/>
  </linearGradient>
  <linearGradient id="linearGradientSk30czy4018os" y2="0.5" x2="1" y1="0.5" x1="0">
   <stop stop-color="#000000" offset="0%"/>
   <stop stop-color="#000000" offset="100%"/>
  </linearGradient>
  <linearGradient id="linearGradientSk30czy4018ov" y2="0.5" x2="1" y1="0.5" x1="0">
   <stop stop-color="#000000" offset="0%"/>
   <stop stop-color="#000000" offset="100%"/>
  </linearGradient>
  <linearGradient id="linearGradientSk30czy4018p1" y2="0.5" x2="1" y1="0.5" x1="0">
   <stop stop-opacity="0.59" stop-color="#cf1717" offset="0%"/>
   <stop stop-opacity="0.59" stop-color="#cf1717" offset="100%"/>
  </linearGradient>
  <linearGradient id="linearGradientSk30czy4018pa" y2="0.5" x2="1" y1="0.5" x1="0">
   <stop stop-color="#e78200" offset="0%"/>
   <stop stop-color="#e78200" offset="100%"/>
  </linearGradient>
 </defs>
 <g>
  <title>background</title>
  <rect fill="none" id="canvas_background" height="495" width="535" y="-1" x="-1"/>
 </g>
 <g>
  <title>Layer 1</title>
  <g id="svg_15" transform="matrix(1,0,0,1,369,-2) " class="selector-part">
   <rect id="svg_16" fill="rgba(255,255,255,0)" height="420" width="290" y="3" x="-295"/>
  </g>
  <g id="svg_17" transform="matrix(1.5085,0,0,2.206,374.1225,3.7847) " class="svg-clip svg-visible">
   <rect id="svg_18" class="svg-hitbox" fill="none" height="186" width="186" y="1.359927" x="-195.558502"/>
   <g id="svg_1">
    <svg y="1.359927" x="-195.558502" id="svg_19" class="thumb" viewBox="-5.013000000000005,-5,186.769,186.769" height="186.769" width="186.769">
     <desc>Created with Snap</desc>

     <g id="svg_20">
      <rect id="svg_21" fill="url('#linearGradientSk30czy4018pa')" height="176.769" width="176.769" y="0" x="-0.013"/>
     </g>
    </svg>
   </g>
  </g>
  <g id="svg_22" transform="matrix(1.0623,0,0,2.3411,544.0483,0.1073) " class="svg-clip svg-visible">
   <rect id="svg_23" class="svg-hitbox" fill="none" height="186" width="186" y="1.281449" x="-277.699341"/>
   <g id="svg_2">
    <svg y="1.281449" x="-277.699341" id="svg_24" class="thumb" viewBox="-5.013000000000005,-5,186.769,186.769" height="186.769" width="186.769">
     <desc>Created with Snap</desc>

     <g id="svg_25">
      <rect id="svg_26" fill="url('#linearGradientSk30czy4018p1')" height="176.769" width="176.769" y="0" x="-0.013"/>
     </g>
    </svg>
   </g>
  </g>
  <g id="svg_27" transform="matrix(1.4322,0.6377,-0.6377,1.4322,646.6488,253.2552) " class="svg-clip svg-visible">
   <rect id="svg_28" class="svg-hitbox" fill="none" height="79" width="74" y="78.286903" x="-171.118866"/>
   <g id="svg_3">
    <svg y="78.286903" x="-171.118866" id="svg_29" viewBox="13,25,74,79" height="79" width="74">
     <desc>Created with Snap</desc>

     <g id="svg_30">
      <path id="svg_31" d="m69.966,30l4.436,7.938l-6.1,3.223l-6.012,-11.161l-25.595,0l-6.013,11.16l-6.098,-3.223l4.424,-7.937l-11.008,0l4,69l56,0l4,-69l-12.034,0zm-1.966,61l-36,0l0,-45l36,0l0,45z" fill="url('#linearGradientSk30czy4017q7')"/>
     </g>
    </svg>
   </g>
  </g>
  <g id="svg_32" transform="matrix(1.4322,0.6377,-0.6377,1.4322,675.6124,217.6479) " class="svg-clip svg-visible">
   <rect id="svg_33" class="svg-hitbox" fill="none" height="48" width="57" y="78.286903" x="-171.118866"/>
   <g id="svg_4">
    <svg y="78.286903" x="-171.118866" id="svg_34" viewBox="20.956,-3.974,57.075,48.786" height="48.786" width="57.075">
     <desc>Created with Snap</desc>

     <g id="svg_35">
      <path id="svg_36" fill="url('#linearGradientSk30czy4017go')" d="m56.135,6.649c-1.57,-3.423 -3.968,-5.623 -6.664,-5.623c-2.691,0 -5.088,2.194 -6.658,5.607l-16.857,30.898l4.227,2.281l5.676,-10.757l7.889,-22.015c1.401,-3.038 3.459,-5.015 5.724,-5.015c2.269,0 4.328,1.983 5.732,5.03l7.924,21.999l5.675,10.757l4.228,-2.281l-16.896,-30.881zm-26.203,30.525l-1.754,-0.955l2.931,-5.406l1.755,0.955l-2.932,5.406zm36.189,-5.406l1.755,-0.955l2.931,5.406l-1.754,0.955l-2.932,-5.406z"/>
     </g>
    </svg>
   </g>
  </g>
  <g id="svg_37" transform="matrix(1.4322,0.6377,-0.6377,1.4322,656.8784,287.3659) " class="svg-clip svg-visible">
   <rect id="svg_38" class="svg-hitbox" fill="none" height="53" width="44" y="78.286903" x="-171.118866"/>
   <g id="svg_5">
    <svg y="78.286903" x="-171.118866" id="svg_39" viewBox="28,42,44,53" height="53" width="44">
     <desc>Created with Snap</desc>

     <g id="svg_40">
      <rect id="svg_41" fill="url('#linearGradientSk30czy4017i0')" height="43" width="34" y="47" x="33"/>
     </g>
    </svg>
   </g>
  </g>
  <g id="svg_42" transform="matrix(1.4322,0.6377,-0.6377,1.4322,661.1129,264.9616) " class="svg-clip svg-visible">
   <rect id="svg_43" class="svg-hitbox" fill="none" height="13" width="12" y="78.286903" x="-171.118866"/>
   <g id="svg_6">
    <svg y="78.286903" x="-171.118866" id="svg_44" viewBox="24.418,27.399,12.398,13.189" height="13.189" width="12.398">
     <desc>Created with Snap</desc>

     <g id="svg_45">
      <polygon id="svg_46" points="30.918,32.399 31.816,32.878 30.315,35.588 29.418,35.109  " fill="url('#linearGradientSk30czy4017gu')"/>
     </g>
    </svg>
   </g>
  </g>
  <g id="svg_47" transform="matrix(1.4322,0.6377,-0.6377,1.4322,715.448,288.6714) " class="svg-clip svg-visible">
   <rect id="svg_48" class="svg-hitbox" fill="none" height="13" width="12" y="78.286903" x="-171.118866"/>
   <g id="svg_7">
    <svg y="78.286903" x="-171.118866" id="svg_49" viewBox="62.418000000000006,27.399,12.397999999999996,13.189" height="13.189" width="12.398">
     <desc>Created with Snap</desc>

     <g id="svg_50">
      <polygon id="svg_51" points="68.316,32.399 67.418,32.878 68.919,35.588 69.816,35.109  " fill="url('#linearGradientSk30czy4017gx')"/>
     </g>
    </svg>
   </g>
  </g>
  <g id="svg_52" transform="matrix(2.6943,0,0,2.6943,515.2195,7.2298) " class="svg-clip svg-visible">
   <rect id="svg_53" class="svg-hitbox" fill="none" height="105" width="83" y="1.113462" x="-109.490402"/>
   <g id="svg_8">
    <svg y="1.113462" x="-109.490402" id="svg_54" viewBox="5.323594011624017,-1.3483694910697235,83.85240598837598,105.09804080789743" height="105.098041" width="83.852406">
     <desc>Created with Snap</desc>

     <g id="svg_55">
      <path id="svg_56" fill="url('#linearGradientSk30czy4018ov')" d="m83.586,75.903c0.188,-4.544 0.378,-9.099 0.59,-13.976c-0.1,-2.899 -0.146,-6.133 -0.323,-9.355c-0.288,-5.121 -0.698,-10.221 -0.977,-15.331c-0.301,-5.478 -0.434,-10.955 -0.812,-16.409c-0.178,-2.6 -0.755,-5.167 -1.133,-7.744c-0.633,-4.333 -2.944,-7.311 -7.1,-8.821c-0.167,-0.055 -0.355,-0.078 -0.533,-0.089c-1.978,-0.189 -3.943,-0.4 -5.922,-0.522c-0.545,-0.034 -1.178,0.133 -1.654,0.411c-1.068,0.6 -2.022,1.389 -3.077,2.011c-3.867,2.267 -8.133,3.4 -12.477,4.245c-1.367,0.266 -2.845,0.555 -4.178,0.299c-3.477,-0.655 -6.589,-2.288 -9.432,-4.433c-0.899,-0.678 -3.055,-0.667 -4.044,-0.156c-1.011,0.533 -2.044,1.123 -3.144,1.333c-1.734,0.333 -3.389,0.755 -5.01,1.511c-1.6,0.744 -2.788,1.8 -3.557,3.344c-1.299,2.622 -1.477,5.511 -1.888,8.333c-0.156,1.1 -0.233,2.233 -0.21,3.344c0.033,1.966 0.299,3.933 0.255,5.899c-0.066,3.1 -0.133,6.222 -0.533,9.277c-0.534,4.155 -1.278,8.288 -2.145,12.387c-0.933,4.366 -1.978,8.698 -2.299,13.177c-0.188,2.699 -0.412,5.399 -0.633,8.099c-0.289,3.634 -0.634,7.255 -0.856,10.888c-0.266,4.521 -0.489,9.044 -2.078,13.354c-0.244,0.645 0.011,0.777 0.579,0.822c1.711,0.132 3.433,0.277 5.144,0.443c1.411,0.134 2.822,0.333 4.233,0.467c0.177,0.011 0.543,-0.233 0.543,-0.333c-0.211,-4.321 0.922,-8.455 1.733,-12.632c0.022,-0.1 0.1,-0.188 0.146,-0.278c0.055,0.056 0.11,0.123 0.178,0.168c0.377,0.255 0.744,0.677 1.144,0.721c3.377,0.367 6.755,0.679 10.144,0.99c3.199,0.288 6.399,0.565 9.609,0.854c3.866,0.345 7.743,0.7 11.61,1.077c3.656,0.345 7.288,1.257 10.977,0.245c0.577,-0.156 0.867,-0.256 0.8,-0.967c-0.156,-1.889 -0.21,-3.788 -0.334,-5.688c-0.21,-3.532 -0.31,-7.065 -0.688,-10.576c-0.232,-2.145 -1.055,-4.222 -1.321,-6.366c-0.424,-3.344 0.299,-6.61 1.154,-9.82c0.967,-3.655 2.155,-7.266 3.056,-10.944c0.499,-2.01 0.577,-4.121 0.866,-6.188c0.057,-0.366 0.256,-0.711 0.391,-1.067c0.1,0.322 0.254,0.645 0.277,0.967c0.254,3.877 0.61,7.766 0.678,11.643c0.089,4.789 -0.135,9.566 -0.122,14.354c0.011,3.021 0.254,6.045 0.321,9.066c0.067,3.978 0.288,7.921 0.9,11.854c0.534,3.488 0.898,7.033 -0.1,10.533c-0.035,0.132 0.21,0.467 0.377,0.521c0.589,0.188 1.2,0.289 1.799,0.433c0.424,0.112 0.968,0.067 0.99,0.745c0,0.1 0.231,0.245 0.377,0.267c2.189,0.366 4.388,0.688 6.599,0.244c0.213,-0.045 0.513,-0.399 0.513,-0.611c0.021,-2.199 -0.101,-4.41 -0.022,-6.621c0.152,-5.133 0.397,-10.266 0.619,-15.399zm-52.76,-16.564c-2.811,3.955 -3.911,8.521 -4.977,13.121c-0.223,0.955 -0.556,1.899 -0.844,2.845c-0.045,-0.013 -0.1,-0.013 -0.146,-0.023c0.5,-3.677 0.922,-7.365 1.534,-11.031c0.966,-5.801 1.866,-11.589 1.877,-17.5c0,-2.11 0.289,-4.221 0.511,-6.332c0.044,-0.434 0.354,-0.867 0.632,-1.233c0.201,-0.255 0.544,-0.4 0.833,-0.6c0.146,0.311 0.39,0.611 0.434,0.944c0.267,1.9 0.5,3.8 0.723,5.71c0.289,2.556 0.666,5.1 0.822,7.666c0.133,2.244 -0.034,4.511 -1.399,6.433zm21.931,-34.208c-0.533,0 -0.968,-0.433 -0.968,-0.966s0.435,-0.967 0.968,-0.967c0.532,0 0.966,0.434 0.966,0.967s-0.434,0.966 -0.966,0.966zm2.521,-3.765c-0.854,0 -1.545,-0.689 -1.545,-1.544c0,-0.845 0.69,-1.533 1.545,-1.533c0.845,0 1.545,0.688 1.545,1.533c0,0.855 -0.7,1.544 -1.545,1.544zm2.722,-4.256c-1.122,0 -2.033,-0.911 -2.033,-2.033c0,-1.133 0.911,-2.044 2.033,-2.044c1.135,0 2.044,0.911 2.044,2.044c0,1.122 -0.909,2.033 -2.044,2.033z" clip-rule="evenodd" fill-rule="evenodd"/>
     </g>
    </svg>
   </g>
  </g>
  <g id="svg_57" transform="matrix(1.2661,0,0,1.2661,558,354) " class="svg-text svg-visible">
   <path id="svg_58" d="m-439.998978,116.669481c187,-1 227,-1 414,0" fill="none"/>
   <path id="svg_59" fill="url('#linearGradientSk30czy4018os')" d="m-386.598978,102.09448l1.3,0q2.6,0 4.45,-1.8q1.85,-1.8 1.95,-4.4l0,0l0,-25.9l-40.9,0l0,25.8q0,2.6 1.9,4.45q1.9,1.85 4.5,1.85l0,0l1.3,0l0,1l-21.9,0l0,-1l1.3,0q2.6,0 4.45,-1.85q1.85,-1.85 1.95,-4.45l0,0l0,-55.5q-0.1,-2.6 -1.95,-4.4q-1.85,-1.8 -4.45,-1.8l0,0l-1.3,0l0,-1l21.9,0l0,1l-1.3,0q-2.6,0 -4.45,1.8q-1.85,1.8 -1.95,4.4l0,0l0,26.7l40.9,0l0,-26.7q-0.1,-3.6 -3.2,-5.4l0,0q-1.5,-0.8 -3.2,-0.8l0,0l-1.3,0l0,-1l21.9,0l0,1l-1.3,0q-2.6,0 -4.45,1.85q-1.85,1.85 -1.95,4.45l0,0l0,55.4q0.1,2.6 1.95,4.45q1.85,1.85 4.45,1.85l0,0l1.3,0l0,1l-21.9,0l0,-1zm93.9,0l0,0l0.8,0l0,1l-20.5,0l0,-1l0.8,0q1.9,0 2.9,-1.3q1,-1.3 1,-2.45q0,-1.15 -0.4,-2.25l0,0l-5.5,-13.3l-25.3,0l-5.5,13q-0.5,1.3 -0.5,2.45q0,1.15 1,2.5q1,1.35 3,1.35l0,0l0.8,0l0,1l-19.1,0l0,-1l0.8,0q2.1,0 4.25,-1.45q2.15,-1.45 3.55,-4.35l0,0q21.9,-46.8 22.8,-49l0,0q1.7,-4.2 1.8,-5.6l0,0l0.9,0l24.7,54.6q2.9,5.8 7.7,5.8zm-33.3,-49.7l-11.6,27.4l22.8,0l-11.2,-27.4zm108,-8.3l-1.7,0q-2.2,0 -3.8,1.45q-1.6,1.45 -1.7,3.55l0,0l0,42.6q0,5.8 0.7,11l0,0l0.2,1.8l-0.9,0l-52,-49.3l0,41.7q0,2.2 1.6,3.7q1.6,1.5 3.9,1.5l0,0l1.7,0l0,1l-18.9,0l0,-1l1.7,0q2.3,0 3.9,-1.5q1.6,-1.5 1.6,-3.7l0,0l0,-42.8q0,-6.1 -0.7,-10.9l0,0l-0.2,-1.6l1.1,0.1l51.9,48.9l0,-41.5q-0.2,-2.1 -1.8,-3.55q-1.6,-1.45 -3.8,-1.45l0,0l-1.7,0l0,-1l18.9,0l0,1zm40.8,60.4q-14.9,-0.1 -23.85,-8.55q-8.95,-8.45 -8.95,-22.9q0,-14.45 8.95,-22.9q8.95,-8.45 23.1,-8.45q14.15,0 24.05,6l0,0l2.2,14.2l-0.9,0q-2.1,-8.8 -8.15,-13q-6.05,-4.2 -17.1,-4.2q-11.05,0 -18,7.65q-6.95,7.65 -6.95,20.75q0,13.1 7,20.75q7,7.65 19.35,7.65q12.35,0 21.25,-8.7l0,0l0.1,-13.3q0.1,-1.8 -1.15,-2.85q-1.25,-1.05 -3.45,-1.05l0,0l-1.4,0l0,-1l18.3,0l0,1l-1.4,0q-4.5,0 -4.5,4l0,0l0,12q-4.2,5.2 -11.55,9.05q-7.35,3.85 -16.95,3.85l0,0zm40.4,-2.4l1.4,0q2.4,0 4.05,-1.55q1.65,-1.55 1.75,-3.75l0,0l0,-47.5q0,-2.2 -1.7,-3.7q-1.7,-1.5 -4.1,-1.5l0,0l-1.4,0l0,-1l29.2,0q4.1,0 7.2,-0.6q3.1,-0.6 4,-1l0,0l0,11.4l-1.1,-0.1l0,-1.5q0,-2.1 -1.4,-3.6q-1.4,-1.5 -3.6,-1.5l0,0l-20.8,0l0,25.4l17.1,0q2,0 3.05,-1.2q1.05,-1.2 1.05,-3l0,0l0,-1.3l1.1,0l0,14l-1.1,0l0,-1.3q0,-2.8 -2.1,-3.8l0,0q-0.8,-0.3 -1.7,-0.4l0,0l-17.4,0l0,25.4l15.7,0q4.6,0 7.75,-1.6q3.15,-1.6 4.8,-3.8q1.65,-2.2 3.35,-5.8l0,0l1,0l-5.5,14.3l-40.6,0l0,-1zm72.3,-55.9l0,0l-5.3,0l0,50.5q0.1,3.1 2.8,4.7l0,0q1.3,0.7 2.9,0.7l0,0l1.3,0l0.1,1l-20.5,0l0,-1l1.4,0q2.3,0 3.95,-1.55q1.65,-1.55 1.65,-3.75l0,0l0,-47.5q0,-2.2 -1.65,-3.7q-1.65,-1.5 -3.95,-1.5l0,0l-1.4,0l0,-1l25.1,0q9.4,0 14.85,4.3q5.45,4.3 5.45,11.3q0,7 -4.4,11.7q-4.4,4.7 -11.2,5.4l0,0q3.2,1.4 7.7,7.8l0,0q-0.1,0 3.45,4.4q3.55,4.4 5.7,6.85q2.15,2.45 3.55,3.75l0,0q3.7,3.5 8.5,3.5l0,0l0,1l-3.1,0q-7.9,0 -12.4,-3.1l0,0q-3.4,-2.3 -6.2,-5.7l0,0q-0.6,-0.8 -5.05,-7.05q-4.45,-6.25 -4.75,-6.65l0,0q-5.4,-6.7 -10.1,-6.7l0,0l0,-1q11.7,0 14.1,-1.2l0,0q3.3,-1.7 4.5,-3.6l0,0q2.5,-4 2.5,-8.8l0,0q0,-6.1 -3.6,-9.4q-3.6,-3.3 -9.7,-3.6l0,0q-2.7,-0.1 -6.2,-0.1z"/>
   <rect id="svg_60" height="0" width="0" y="2.369481" x="-232.998978"/>
  </g>
  <g id="svg_61">
   <rect id="svg_62" stroke="#ff8800" fill="rgba(255,136,0,0.1)" height="0" width="0" y="0" x="0"/>
  </g>
  <g id="svg_63" class="selector-part">
   <rect id="svg_64" stroke="#3399ff" fill="rgba(168,202,236,0.5)" height="0" width="0" y="0" x="0"/>
  </g>
 </g>
</svg>