<svg width="221" height="222.21448" xmlns="http://www.w3.org/2000/svg">
 <desc>Created with Snap</desc>
 <defs>
  <linearGradient id="linearGradientSk2c5vp98had" y2="0.5" x2="1" y1="0.5" x1="0">
   <stop stop-color="#718f40" offset="0%"/>
   <stop stop-color="#718f40" offset="100%"/>
  </linearGradient>
  <linearGradient id="linearGradientSk2c5vp98ham" y2="0.5" x2="1" y1="0.5" x1="0">
   <stop stop-color="#ffffff" offset="0%"/>
   <stop stop-color="#ffffff" offset="100%"/>
  </linearGradient>
  <linearGradient id="linearGradientSk2c5vp98has" y2="0.5" x2="1" y1="0.5" x1="0">
   <stop stop-opacity="0.7" stop-color="#ffffff" offset="0%"/>
   <stop stop-opacity="0.7" stop-color="#ffffff" offset="100%"/>
  </linearGradient>
  <linearGradient id="linearGradientSk2c5vp98hav" y2="0.5" x2="1" y1="0.5" x1="0">
   <stop stop-opacity="0.7" stop-color="#ffffff" offset="0%"/>
   <stop stop-opacity="0.7" stop-color="#ffffff" offset="100%"/>
  </linearGradient>
  <linearGradient id="linearGradientSk2c5vp98hay" y2="0.5" x2="1" y1="0.5" x1="0">
   <stop stop-opacity="0.7" stop-color="#ffffff" offset="0%"/>
   <stop stop-opacity="0.7" stop-color="#ffffff" offset="100%"/>
  </linearGradient>
  <linearGradient id="linearGradientSk2c5vp98hb1" y2="0.5" x2="1" y1="0.5" x1="0">
   <stop stop-color="#ffffff" offset="0%"/>
   <stop stop-color="#ffffff" offset="100%"/>
  </linearGradient>
  <linearGradient id="linearGradientSk2c5vp98hb4" y2="0.5" x2="1" y1="0.5" x1="0">
   <stop stop-color="#ffffff" offset="0%"/>
   <stop stop-color="#ffffff" offset="100%"/>
  </linearGradient>
  <linearGradient id="linearGradientSk2c5vp98hmc" y2="0.5" x2="1" y1="0.5" x1="0">
   <stop stop-color="#31081f" offset="0%"/>
   <stop stop-color="#31081f" offset="100%"/>
  </linearGradient>
  <linearGradient id="linearGradientSk2c5vp98hmf" y2="0.5" x2="1" y1="0.5" x1="0">
   <stop stop-color="#efc69b" offset="0%"/>
   <stop stop-color="#efc69b" offset="100%"/>
  </linearGradient>
  <linearGradient id="linearGradientSk2c5vp98hmi" y2="0.5" x2="1" y1="0.5" x1="0">
   <stop stop-color="#e56b70" offset="0%"/>
   <stop stop-color="#e56b70" offset="100%"/>
  </linearGradient>
  <linearGradient id="linearGradientSk2c5vp98hml" y2="0.5" x2="1" y1="0.5" x1="0">
   <stop stop-color="#e56b70" offset="0%"/>
   <stop stop-color="#e56b70" offset="100%"/>
  </linearGradient>
  <linearGradient id="linearGradientSk2c5vp98hmr" y2="0.5" x2="1" y1="0.5" x1="0">
   <stop stop-color="#31081f" offset="0%"/>
   <stop stop-color="#31081f" offset="100%"/>
  </linearGradient>
 </defs>
 <g>
  <title>background</title>
  <rect fill="none" id="canvas_background" height="224.21448" width="223" y="-1" x="-1"/>
 </g>
 <g>
  <title>Layer 1</title>
  <g id="svg_12" transform="matrix(0.1781,0,0,0.1781,457,797) " class="svg-text svg-hidden">
   <path id="svg_13" d="m80.84463,269.98538c15.95459,-230.6943 343.24577,-231.67146 371.79081,0.51497" fill="none"/>
   <path id="svg_14" fill="url('#linearGradientSk2c5vp98has')" d="m153.79695,57.55929l3.55676,6.37491l-15.89361,8.86753l10.03687,17.98947l12.57517,-7.01607l3.45931,6.20026l-12.57517,7.01607l13.44746,24.1024l-7.9468,4.43376l-30.5004,-54.66704l23.84041,-13.30129zm38.64373,4.49433l-1.21626,-3.7055l8.55114,-2.80675l15.21885,46.36622l-8.55115,2.80676l-1.21626,-3.7055q-0.0189,4.11092 -4.67453,5.63904l0,0l-3.42046,1.1227q-8.55114,2.80676 -11.29553,-5.55437l0,0l-9.69889,-29.54896q-2.77557,-8.45614 5.77558,-11.26289l0,0l3.42046,-1.1227q4.65562,-1.52813 7.10705,1.77195l0,0zm5.26513,37.84546l0,0l3.32544,-1.09152q1.71023,-0.56135 2.17334,-1.55535q0.46311,-0.994 -0.12943,-2.79924l0,0l-8.48264,-25.84347q-0.59254,-1.80524 -1.55462,-2.33145q-0.96209,-0.5262 -2.67231,0.03515l0,0l-3.32545,1.09151q-1.71023,0.56135 -2.10878,1.27104q-0.39856,0.70969 0.1628,2.41992l0,0l8.85687,26.98362q0.56135,1.71023 1.30295,2.04568q0.7416,0.33546 2.45183,-0.22589zm40.78088,-11.72608l0,0l-1.09862,-8.02515q-0.24413,-1.78336 -0.91318,-2.2469q-0.66906,-0.46354 -2.45242,-0.21941l0,0l-5.05288,0.69172q-9.21406,1.26137 -10.40761,-7.45731l0,0l-1.397,-10.20483q-1.20712,-8.81775 8.00695,-10.07912l0,0l7.23254,-0.99011q9.31314,-1.27493 10.52025,7.54283l0,0l0.63747,4.65657l-8.71868,1.19355l-0.5154,-3.76488q-0.24414,-1.78337 -0.91319,-2.24691q-0.66905,-0.46354 -2.45242,-0.2194l0,0l-2.37782,0.32551q-1.78337,0.24414 -2.30323,0.87043q-0.51986,0.6263 -0.27572,2.40967l0,0l1.1393,8.32237q0.24414,1.78337 0.91319,2.24691q0.66905,0.46354 2.45242,0.2194l0,0l5.15195,-0.70528q9.11498,-1.2478 10.3221,7.56996l0,0l1.35631,9.90759q1.19355,8.71868 -8.02051,9.98005l0,0l-7.33162,1.00367q-9.21406,1.26137 -10.40762,-7.45731l0,0l-0.65102,-4.75565l8.71868,-1.19355l0.5154,3.76488q0.24413,1.78337 0.91318,2.24691q0.66906,0.46354 2.45242,0.2194l0,0l2.37783,-0.32551q1.78336,-0.24414 2.30322,-0.87043q0.51986,-0.6263 0.27573,-2.40967zm34.94469,-40.05626l0,0l3.49718,0.14061q9.09265,0.36559 8.73509,9.2584l0,0l-1.60296,39.86779l-8.99274,-0.36157l1.55074,-38.56884q0.07232,-1.79854 -0.5051,-2.37221q-0.57742,-0.57366 -2.37597,-0.64597l0,0l-3.49717,-0.14061q-1.79855,-0.07232 -2.58008,0.69691q-0.78154,0.76922 -0.85787,2.66769l0,0l-1.52664,37.96932l-8.99273,-0.36157l2.68768,-66.84599l8.99274,0.36157l-0.88384,21.98224q1.45563,-3.84463 6.35167,-3.64777zm38.52647,-4.71381l-9.25283,-1.65684l1.56871,-8.76066l9.25283,1.65684l-1.56871,8.76066zm-1.83607,9.11914l-8.60144,48.03598l-8.8591,-1.58633l8.60144,-48.03598l8.8591,1.58633zm23.61317,5.8848l0,0l10.16578,3.3387q8.83568,2.90186 6.05863,11.35751l0,0l-9.70408,29.54727q-2.74585,8.36064 -11.58153,5.45878l0,0l-10.16578,-3.33871q-8.74067,-2.87066 -5.99482,-11.2313l0,0l9.70408,-29.54726q2.77705,-8.45565 11.51772,-5.58499zm-1.52968,40.23133l0,0l8.924,-27.17208q0.56165,-1.71013 0.17883,-2.46739q-0.38283,-0.75726 -2.09296,-1.31892l0,0l-5.2254,-1.71615q-1.71013,-0.56165 -2.41989,-0.16322q-0.70976,0.39842 -1.27141,2.10856l0,0l-8.924,27.17208q-0.56165,1.71013 -0.22633,2.45179q0.33532,0.74166 2.04545,1.30331l0,0l5.2254,1.71615q1.71013,0.56166 2.4674,0.17883q0.75726,-0.38283 1.31891,-2.09296zm50.06592,-19.37002l0,0l3.0536,1.71042q7.93935,4.4471 3.58999,12.21196l0,0l-19.49884,34.811l-7.8521,-4.39824l18.86353,-33.6768q0.87965,-1.57042 0.62495,-2.34349q-0.25469,-0.77306 -1.82511,-1.65271l0,0l-3.0536,-1.71042q-1.57042,-0.87965 -2.61571,-0.5482q-1.0453,0.33144 -1.97381,1.98911l0,0l-18.57032,33.15333l-7.85211,-4.39824l23.8482,-42.57585l7.85211,4.39823l-1.90591,3.40258q3.0401,-2.76728 7.31513,-0.37268z"/>
   <rect id="svg_15" height="0" width="0" y="0" x="0"/>
  </g>
  <g id="svg_16" transform="matrix(0.1139,0,0,0.1139,465,799) " class="svg-text svg-hidden">
   <path id="svg_17" d="m58.79194,8.68965c63.6085,318.09173 508.95921,325.34297 562.0897,-8.05616" fill="none"/>
   <path id="svg_18" fill="url('#linearGradientSk2c5vp98hav')" d="m89.28907,138.95858l3.2434,-2.16572l4.99782,7.48477l-40.58411,27.09927l-4.99781,-7.48477l3.2434,-2.16572q-3.96531,1.08459 -6.68634,-2.99046l0,0l-1.99913,-2.99391q-4.99782,-7.48477 2.32063,-12.37152l0,0l25.86405,-17.27024q7.40161,-4.94228 12.39942,2.54249l0,0l1.99913,2.99391q2.72103,4.07504 0.19954,7.3219l0,0zm-35.04585,15.2246l0,0l1.9436,2.91075q0.99956,1.49695 2.08136,1.67643q1.0818,0.17948 2.66192,-0.87561l0,0l22.62064,-15.10451q1.58012,-1.0551 1.82895,-2.12308q0.24883,-1.06798 -0.75073,-2.56493l0,0l-1.9436,-2.91075q-0.99956,-1.49695 -1.79015,-1.69052q-0.79059,-0.19356 -2.28755,0.806l0,0l-23.61862,15.77089q-1.49695,0.99956 -1.62117,1.80397q-0.12421,0.80441 0.87535,2.30136zm31.05755,36.60374l0,0l6.14428,-5.27805q1.3654,-1.1729 1.39164,-1.98642q0.02624,-0.81351 -1.14666,-2.17891l0,0l-3.32322,-3.86862q-6.05998,-7.05455 0.61529,-12.78873l0,0l7.81311,-6.71159q6.75112,-5.79933 12.8111,1.25522l0,0l4.75676,5.53744q6.12514,7.1304 -0.62599,12.92974l0,0l-3.5652,3.06257l-5.73417,-6.67527l2.8825,-2.47612q1.3654,-1.1729 1.39164,-1.98642q0.02623,-0.81352 -1.14667,-2.17892l0,0l-1.56386,-1.82052q-1.1729,-1.3654 -1.98107,-1.46215q-0.80817,-0.09674 -2.17357,1.07616l0,0l-6.37185,5.47353q-1.36539,1.17289 -1.39163,1.98641q-0.02624,0.81352 1.14666,2.17892l0,0l3.38837,3.94448q5.99482,6.97869 -0.7563,12.77802l0,0l-7.58554,6.51611q-6.67527,5.73417 -12.73525,-1.32037l0,0l-4.82192,-5.6133q-6.05998,-7.05455 0.61529,-12.78872l0,0l3.64106,-3.12773l5.73417,6.67527l-2.8825,2.47612q-1.3654,1.1729 -1.39163,1.98642q-0.02624,0.81351 1.14666,2.17891l0,0l1.56386,1.82053q1.1729,1.3654 1.98107,1.46214q0.80817,0.09675 2.17357,-1.07615zm43.89629,40.33452l24.05173,-29.41963l6.96781,5.69646l-30.88748,37.781l-6.96781,-5.69647l2.46847,-3.01938q-3.47493,2.19656 -7.26851,-0.90485l0,0l-2.78713,-2.27858q-6.9678,-5.69646 -1.39793,-12.50943l0,0l25.31761,-30.96803l6.9678,5.69646l-24.43149,29.88415q-1.13929,1.39356 -1.02289,2.19914q0.11641,0.80557 1.50997,1.94487l0,0l2.7097,2.21529q1.39356,1.13929 2.48057,0.99463q1.087,-0.14465 2.28958,-1.61563l0,0zm53.05251,-9.20563l0,0l2.97424,1.84497q7.73302,4.79692 3.04153,12.35998l0,0l-21.03263,33.90632l-7.64804,-4.7442l20.34736,-32.8016q0.94884,-1.52961 0.72889,-2.31327q-0.21994,-0.78366 -1.74955,-1.7325l0,0l-2.97424,-1.84497q-1.52961,-0.94884 -2.58865,-0.66437q-1.05905,0.28448 -2.0606,1.89907l0,0l-20.03108,32.29173l-7.64804,-4.7442l25.72412,-41.46939l7.64804,4.74421l-2.05582,3.31415q3.16054,-2.62888 7.32447,-0.04593zm32.43604,7.0657l-8.42535,-4.16815l3.94644,-7.97719l8.42535,4.16815l-3.94644,7.97719zm-4.30307,8.24704l-21.63889,43.74012l-8.06683,-3.99078l21.6389,-43.74012l8.06682,3.99078zm25.06485,14.75356l1.39469,-3.64209l8.40483,3.21851l-22.38655,58.46026l-8.40483,-3.21851l6.32975,-16.5295q-2.60872,3.1772 -7.18469,1.4249l0,0l-3.36193,-1.28741q-8.40483,-3.21851 -5.25784,-11.43657l0,0l11.12175,-29.04336q3.18275,-8.31144 11.58758,-5.09293l0,0l3.36193,1.28741q4.57597,1.7523 4.39531,5.85929l0,0zm-19.79655,32.68175l0,0l3.26855,1.25164q1.68096,0.6437 2.66746,0.16482q0.98649,-0.47889 1.66595,-2.25324l0,0l9.72706,-25.40127q0.67947,-1.77435 0.26515,-2.78966q-0.41431,-1.0153 -2.09527,-1.659l0,0l-3.26855,-1.25165q-1.68097,-0.6437 -2.43797,-0.34464q-0.75701,0.29906 -1.40072,1.98003l0,0l-10.15619,26.52191q-0.6437,1.68096 -0.28007,2.40916q0.36364,0.72819 2.0446,1.3719zm49.28121,11.58219l9.0657,-36.90276l8.74013,2.14714l-11.64227,47.39091l-8.74012,-2.14714l0.93042,-3.78739q-2.19289,3.47724 -6.9514,2.30825l0,0l-3.49605,-0.85886q-8.74012,-2.14714 -6.6407,-10.69304l0,0l9.54284,-38.845l8.74013,2.14714l-9.20884,37.48542q-0.42943,1.74803 0.02203,2.42529q0.45146,0.67726 2.19949,1.10669l0,0l3.39893,0.835q1.74803,0.42943 2.66723,-0.16854q0.9192,-0.59798 1.37248,-2.44311l0,0zm37.74968,-31.73669l0,0l9.73282,1.14546q9.33557,1.09871 8.29531,9.9377l0,0l-2.13898,18.17457l-19.56497,-2.30262l-1.35585,11.52049q-0.1987,1.68835 0.32706,2.35437q0.52575,0.66602 2.31341,0.87641l0,0l4.56847,0.53766q1.78767,0.21039 2.45368,-0.31536q0.66602,-0.52576 0.87641,-2.31342l0,0l0.46754,-3.97259l8.73968,1.02858l-0.61949,5.26367q-1.02857,8.73969 -10.26483,7.65267l0,0l-9.53419,-1.12209q-9.23626,-1.08702 -8.20768,-9.8267l0,0l3.63509,-30.88683q1.04026,-8.83899 10.27652,-7.75197zm-1.66541,9.87301l-1.23897,10.52734l10.72597,1.26235l1.23897,-10.52735q0.1987,-1.68834 -0.2774,-2.34852q-0.4761,-0.66017 -2.26376,-0.87056l0,0l-4.86641,-0.57273q-1.78767,-0.21039 -2.45368,0.31536q-0.66602,0.52576 -0.86472,2.21411l0,0zm64.49511,-4.04942l-0.21656,-3.89398l8.98611,-0.49977l2.70987,48.7247l-8.98611,0.49977l-0.21657,-3.89398q-1.08143,3.96617 -5.97387,4.23827l0,0l-3.59444,0.19991q-8.98611,0.49977 -9.47478,-8.28665l0,0l-1.72699,-31.05202q-0.49422,-8.88626 8.4919,-9.38603l0,0l3.59444,-0.19991q4.89244,-0.2721 6.407,3.54969l0,0zm-4.70157,37.91959l0,0l3.4946,-0.19435q1.79722,-0.09996 2.50164,-0.94037q0.70442,-0.84041 0.59891,-2.73748l0,0l-1.51042,-27.15803q-0.10551,-1.89707 -0.89877,-2.65419q-0.79327,-0.75712 -2.59049,-0.65716l0,0l-3.4946,0.19435q-1.79722,0.09996 -2.36576,0.68243q-0.56853,0.58246 -0.46858,2.37969l0,0l1.57706,28.35618q0.09996,1.79722 0.72957,2.31305q0.62962,0.51584 2.42684,0.41588zm47.22682,-8.09749l0,0l-1.41022,-7.9763q-0.31338,-1.77251 -0.99998,-2.20965q-0.68659,-0.43714 -2.4591,-0.12376l0,0l-5.02211,0.88792q-9.15797,1.61914 -10.69006,-7.04646l0,0l-1.79324,-10.14269q-1.54951,-8.76408 7.60846,-10.38322l0,0l7.18851,-1.27095q9.25644,-1.63655 10.80595,7.12753l0,0l0.81827,4.62822l-8.6656,1.53209l-0.66159,-3.74196q-0.31338,-1.77251 -0.99997,-2.20965q-0.68659,-0.43714 -2.4591,-0.12376l0,0l-2.36335,0.41784q-1.77251,0.31339 -2.26759,0.95945q-0.49508,0.64606 -0.1817,2.41857l0,0l1.46245,8.27171q0.31338,1.77251 0.99998,2.20965q0.68659,0.43714 2.4591,0.12376l0,0l5.12058,-0.90533q9.0595,-1.60173 10.609,7.16234l0,0l1.74102,9.84728q1.53209,8.6656 -7.62588,10.28475l0,0l-7.28699,1.28835q-9.15796,1.61914 -10.69006,-7.04646l0,0l-0.83568,-4.7267l8.6656,-1.53209l0.66159,3.74197q0.31338,1.77251 0.99997,2.20965q0.68659,0.43714 2.4591,0.12375l0,0l2.36335,-0.41784q1.77251,-0.31338 2.26759,-0.95944q0.49508,-0.64606 0.1817,-2.41857zm54.36664,9.97902l0,0l-5.64443,2.03481l-2.44177,-6.77331l3.85702,-1.39045q4.04517,-1.45828 3.77269,-4.86794l0,0l-0.44972,-4.19616l-4.60961,1.66177l-25.87403,-41.69623l8.65479,-3.12004l20.8321,35.96656l-7.37955,-40.8162l8.56071,-3.08613l8.45415,53.82255q1.01651,9.30681 -7.73235,12.46077zm13.93705,-73.4383l0,0l9.50743,-4.90905q8.26347,-4.26675 12.3467,3.6413l0,0l14.26835,27.63375q4.03735,7.8192 -4.22612,12.08594l0,0l-9.50743,4.90905q-8.17461,4.22086 -12.21196,-3.59833l0,0l-14.26836,-27.63375q-4.08322,-7.90805 4.09139,-12.12891zm27.61801,29.29412l0,0l-13.12139,-25.41238q-0.82582,-1.59939 -1.63422,-1.85724q-0.8084,-0.25785 -2.40778,0.56797l0,0l-4.887,2.52334q-1.59938,0.82582 -1.8128,1.61128q-0.21343,0.78547 0.61239,2.38485l0,0l13.12138,25.41238q0.82583,1.59938 1.5898,1.88018q0.76397,0.28079 2.36335,-0.54503l0,0l4.887,-2.52335q1.59938,-0.82582 1.85723,-1.63422q0.25786,-0.8084 -0.56796,-2.40778zm36.58465,-23.85665l-21.90317,-31.05239l7.35451,-5.1876l28.12829,39.87781l-7.35452,5.18759l-2.24795,-3.18695q1.18564,3.93627 -2.81849,6.76063l0,0l-2.9418,2.07504q-7.35452,5.18759 -12.42683,-2.00349l0,0l-23.05597,-32.68673l7.35451,-5.18759l22.24901,31.54269q1.03752,1.4709 1.84484,1.57451q0.80732,0.1036 2.27823,-0.93392l0,0l2.86008,-2.0174q1.47091,-1.03751 1.62266,-2.12355q0.15176,-1.08603 -0.9434,-2.63865l0,0zm21.19332,-64.18315l-2.81374,-2.70052l6.23198,-6.49326l35.20787,33.79122l-6.23198,6.49325l-2.81375,-2.70053q1.91357,3.63845 -1.4794,7.17366l0,0l-2.4928,2.5973q-6.23198,6.49326 -12.58094,0.39976l0,0l-22.4378,-21.53497q-6.42111,-6.16275 -0.18912,-12.656l0,0l2.49279,-2.5973q3.39297,-3.53522 7.10689,-1.77261l0,0zm22.41876,30.94187l0,0l2.42355,-2.52515q1.2464,-1.29865 1.18855,-2.39371q-0.05784,-1.09506 -1.42864,-2.4107l0,0l-19.62406,-18.83445q-1.3708,-1.31564 -2.46731,-1.32849q-1.09651,-0.01285 -2.3429,1.2858l0,0l-2.42355,2.52515q-1.2464,1.29866 -1.26506,2.11238q-0.01865,0.81373 1.28,2.06013l0,0l20.48982,19.66538q1.29865,1.24639 2.11093,1.19435q0.81228,-0.05204 2.05867,-1.35069zm-2.00761,-62.06565l0,0l1.21618,-1.58774l6.19218,4.74309l-2.18912,2.85793q-3.83096,5.00138 2.04367,9.50123l0,0l26.75339,20.49259l-5.4728,7.14482l-38.74081,-29.67473l5.4728,-7.14482l4.76321,3.64854q-1.57758,-2.21613 -1.72027,-4.90772q-0.14269,-2.69158 1.68157,-5.07319zm9.98854,-14.92318l0,0l5.08975,-8.37463q4.88201,-8.0328 12.48754,-3.41048l0,0l15.63834,9.50434l-10.23144,16.83471l9.91282,6.02461q1.45274,0.88291 2.27709,0.6818q0.82435,-0.20112 1.75921,-1.73931l0,0l2.38906,-3.93095q0.93486,-1.5382 0.73374,-2.36255q-0.20111,-0.82435 -1.73931,-1.7592l0,0l-3.41822,-2.07745l4.57039,-7.52008l4.52914,2.75263q7.52008,4.57039 2.69,12.51774l0,0l-4.98588,8.20372q-4.83007,7.94735 -12.35014,3.37696l0,0l-26.57663,-16.15218q-7.60553,-4.62233 -2.77546,-12.56968zm8.28586,5.62091l9.05827,5.50524l5.60912,-9.22918l-9.05828,-5.50525q-1.45274,-0.88291 -2.25112,-0.72453q-0.79838,0.15839 -1.73323,1.69659l0,0l-2.54488,4.18731q-0.93485,1.5382 -0.73374,2.36255q0.20112,0.82435 1.65386,1.70727l0,0zm53.47716,-17.01463l-4.44185,9.07083l-11.04665,-5.40939l4.44185,-9.07083l11.04665,5.40939z"/>
   <rect id="svg_19" height="0" width="0" y="0" x="0"/>
  </g>
  <g id="svg_20" transform="matrix(0.1949,0,0,0.1949,505,811) " class="svg-text svg-hidden">
   <path id="svg_21" d="m-217.35,80c197.35,-1 237.35,-1 434.7,0" fill="none"/>
   <path id="svg_22" fill="url('#linearGradientSk2c5vp98hay')" d="m-191.35,75l0,0l-15.5,0q-1.9,0 -2.75,-0.85q-0.85,-0.85 -0.85,-2.75l0,0l0,-64.8q0,-1.9 0.85,-2.75q0.85,-0.85 2.75,-0.85l0,0l15.5,0q1.9,0 2.75,0.85q0.85,0.85 0.85,2.75l0,0l0,21.7l16.7,0l0,-21.7q0,-1.9 0.85,-2.75q0.85,-0.85 2.75,-0.85l0,0l15.5,0q1.9,0 2.75,0.85q0.85,0.85 0.85,2.75l0,0l0,64.8q0,1.9 -0.85,2.75q-0.85,0.85 -2.75,0.85l0,0l-15.5,0q-1.9,0 -2.75,-0.85q-0.85,-0.85 -0.85,-2.75l0,0l0,-22.2l-16.7,0l0,22.2q0,1.9 -0.85,2.75q-0.85,0.85 -2.75,0.85zm82.9,-51l0,0l-4.7,15.2l15.7,0l-4.7,-15.2q-0.4,-0.9 -0.85,-1.3q-0.45,-0.4 -1.05,-0.4l0,0l-2.5,0q-0.6,0 -1.05,0.4q-0.45,0.4 -0.85,1.3zm-5.7,33.4l0,14q0,1.9 -0.85,2.75q-0.85,0.85 -2.75,0.85l0,0l-14.7,0q-1.9,0 -2.75,-0.85q-0.85,-0.85 -0.85,-2.75l0,0l0,-26.4q0,-3 0.95,-6.9q0.95,-3.9 2.95,-9.1l0,0l8.7,-22.7q0.6,-1.7 1.85,-2.5q1.25,-0.8 3.25,-0.8l0,0l26.9,0q1.9,0 3.15,0.8q1.25,0.8 1.85,2.5l0,0l8.7,22.7q2,5.2 2.95,9.1q0.95,3.9 0.95,6.9l0,0l0,26.4q0,1.9 -0.85,2.75q-0.85,0.85 -2.75,0.85l0,0l-15.1,0q-2,0 -2.95,-0.85q-0.95,-0.85 -0.95,-2.75l0,0l0,-14l-17.7,0zm71.2,17.6l0,0l-15,0q-1.9,0 -2.75,-0.85q-0.85,-0.85 -0.85,-2.75l0,0l0,-64.8q0,-1.9 0.85,-2.75q0.85,-0.85 2.75,-0.85l0,0l10.4,0q1.9,0 3.25,0.6q1.35,0.6 2.65,2.1l0,0l19.4,22.2l0,-21.3q0,-1.9 0.85,-2.75q0.85,-0.85 2.75,-0.85l0,0l15,0q1.9,0 2.75,0.85q0.85,0.85 0.85,2.75l0,0l0,64.8q0,1.9 -0.85,2.75q-0.85,0.85 -2.75,0.85l0,0l-15,0q-1.9,0 -2.75,-0.85q-0.85,-0.85 -0.85,-2.75l0,0l0,-12.3l-17.1,-20.7l0,33q0,1.9 -0.85,2.75q-0.85,0.85 -2.75,0.85zm111.7,0l0,0l-31.5,0q-12.5,0 -18.55,-5q-6.05,-5 -6.05,-15.4l0,0l0,-31.2q0,-10.4 6.05,-15.4q6.05,-5 18.55,-5l0,0l25,0q1.9,0 2.75,0.85q0.85,0.85 0.85,2.75l0,0l0,12.1q0,1.9 -0.85,2.75q-0.85,0.85 -2.75,0.85l0,0l-20.8,0q-3.1,0 -4.6,1.25q-1.5,1.25 -1.5,3.75l0,0l0,23.9q0,2.5 1.15,3.7q1.15,1.2 3.45,1.2l0,0l9.7,0l0,-15.6q0,-1.9 0.85,-2.75q0.85,-0.85 2.75,-0.85l0,0l15.5,0q1.9,0 2.75,0.85q0.85,0.85 0.85,2.75l0,0l0,30.9q0,1.9 -0.85,2.75q-0.85,0.85 -2.75,0.85zm65.8,0l0,0l-46.4,0q-1.9,0 -2.75,-0.85q-0.85,-0.85 -0.85,-2.75l0,0l0,-64.8q0,-1.9 0.85,-2.75q0.85,-0.85 2.75,-0.85l0,0l46.4,0q1.9,0 2.75,0.85q0.85,0.85 0.85,2.75l0,0l0,11.7q0,1.9 -0.85,2.75q-0.85,0.85 -2.75,0.85l0,0l-27.6,0l0,7.7l19.5,0q1.9,0 2.75,0.85q0.85,0.85 0.85,2.75l0,0l0,10.7q0,1.9 -0.85,2.75q-0.85,0.85 -2.75,0.85l0,0l-19.5,0l0,8.6l27.6,0q1.9,0 2.75,0.85q0.85,0.85 0.85,2.75l0,0l0,11.7q0,1.9 -0.85,2.75q-0.85,0.85 -2.75,0.85zm45.5,-54l-7.5,0l0,12.8l7.5,0q2.6,0 3.5,-1.35q0.9,-1.35 0.9,-3.35l0,0l0,-3.4q0,-2 -0.9,-3.35q-0.9,-1.35 -3.5,-1.35l0,0zm-11.1,54l0,0l-15.4,0q-1.9,0 -2.75,-0.85q-0.85,-0.85 -0.85,-2.75l0,0l0,-64.8q0,-1.9 0.85,-2.75q0.85,-0.85 2.75,-0.85l0,0l33.3,0q11.2,0 15.45,4.65q4.25,4.65 4.25,12.05l0,0l0,4.6q0,4.2 -1.25,7.15q-1.25,2.95 -4.35,4.25l0,0q5.4,0.6 8.75,4.4q3.35,3.8 3.35,10.1l0,0l0,21.2q0,1.9 -0.85,2.75q-0.85,0.85 -2.75,0.85l0,0l-15.5,0q-1.9,0 -2.75,-0.85q-0.85,-0.85 -0.85,-2.75l0,0l0,-15.3q0,-2.2 -0.85,-3.25q-0.85,-1.05 -2.95,-1.05l0,0l-14,0l0,19.6q0,1.9 -0.85,2.75q-0.85,0.85 -2.75,0.85z"/>
   <rect id="svg_23" height="0" width="0" y="0" x="0"/>
  </g>
  <g id="svg_24" transform="matrix(0.8409,0,0,0.8409,495.2885,808.876) " class="svg-clip svg-hidden">
   <rect id="svg_25" class="svg-hitbox" fill="none" height="30" width="21" y="0" x="0"/>
   <g id="svg_1">
    <svg id="svg_26" viewBox="-0.9647580015448902,-4.9853582352552035,21.990241401138793,30.048623541377655" height="30.048624" width="21.990241">
     <desc>Created with Snap</desc>

     <g id="svg_27"/>
     <g id="svg_28"/>
     <g id="svg_29">
      <path id="svg_30" d="m15.5,6.9l-4.8,0.9c-0.3,0.1 -0.6,-0.3 -0.5,-0.6l1.5,-6.6c0.1,-0.5 -0.5,-0.8 -0.8,-0.4l-6.8,11.7c-0.2,0.4 0.1,0.8 0.4,0.8l4.8,-0.9c0.3,-0.1 0.6,0.3 0.5,0.7l-1.9,6.9c-0.2,0.5 0.5,0.9 0.8,0.5l7.3,-12.1c0.1,-0.5 -0.1,-1 -0.5,-0.9z" fill="url('#linearGradientSk2c5vp98ham')"/>
     </g>
    </svg>
   </g>
  </g>
  <g id="svg_31" transform="matrix(0.3966,0,0,0.3966,496.9877,993.0603) " class="svg-clip svg-hidden">
   <rect id="svg_32" class="svg-hitbox" fill="none" height="35" width="99" y="0" x="0"/>
   <g id="svg_2">
    <svg id="svg_33" class="thumb" viewBox="-5,25.604770200154093,99.72399999999999,35.79120965948048" height="35.79121" width="99.724">
     <desc>Created with Snap</desc>

     <g id="svg_34"/>
     <g id="svg_35">
      <path id="svg_36" fill="url('#linearGradientSk2c5vp98hb1')" d="m58.032,42.858c7.372,7.211 19.141,7.097 26.05,-0.015c1.881,1.9 3.76,3.801 5.642,5.703c-10.692,11.08 -28.266,9.842 -37.343,-0.023l0,0c-6.451,-6.287 -14.225,-9.708 -23.336,-9.735c-9.114,-0.025 -16.912,3.342 -23.41,9.621c-1.896,-1.939 -3.766,-3.853 -5.635,-5.766c17.826,-17.498 43.575,-14.601 58.032,0.215z" clip-rule="evenodd" fill-rule="evenodd"/>
     </g>
    </svg>
   </g>
  </g>
  <g id="svg_37" transform="matrix(-0.3963,0.0138,-0.0138,-0.3963,536.4767,1006.2504) " class="svg-clip svg-hidden">
   <rect id="svg_38" class="svg-hitbox" fill="none" height="35" width="99" y="0" x="0"/>
   <g id="svg_3">
    <svg id="svg_39" class="thumb" viewBox="-5,25.604770200154093,99.72399999999999,35.79120965948048" height="35.79121" width="99.724">
     <desc>Created with Snap</desc>

     <g id="svg_40"/>
     <g id="svg_41">
      <path id="svg_42" fill="url('#linearGradientSk2c5vp98hb4')" d="m58.032,42.858c7.372,7.211 19.141,7.097 26.05,-0.015c1.881,1.9 3.76,3.801 5.642,5.703c-10.692,11.08 -28.266,9.842 -37.343,-0.023l0,0c-6.451,-6.287 -14.225,-9.708 -23.336,-9.735c-9.114,-0.025 -16.912,3.342 -23.41,9.621c-1.896,-1.939 -3.766,-3.853 -5.635,-5.766c17.826,-17.498 43.575,-14.601 58.032,0.215z" clip-rule="evenodd" fill-rule="evenodd"/>
     </g>
    </svg>
   </g>
  </g>
  <g id="svg_43" transform="matrix(0.7843,0,0,0.7843,388.2422,960.7844) " class="svg-clip svg-hidden">
   <rect id="svg_44" class="svg-hitbox" fill="none" height="100" width="100" y="0" x="0"/>
   <g id="svg_4">
    <svg id="svg_45" viewBox="0,0.6460000000000008,100,100" height="100" width="100">
     <desc>Created with Snap</desc>

     <g id="svg_46"/>
     <g id="svg_47"/>
     <g id="svg_48">
      <path id="svg_49" fill="url('#linearGradientSk2c5vp98had')" d="m50,95.646c24.854,0 45,-20.147 45,-45s-20.146,-45 -45,-45s-45,20.147 -45,45s20.146,45 45,45zm0,-89c24.262,0 44,19.738 44,44s-19.738,44 -44,44s-44,-19.738 -44,-44s19.738,-44 44,-44z"/>
     </g>
    </svg>
   </g>
  </g>
  <g id="svg_52" transform="matrix(1,0,0,1,47,51) " class="selector-part">
   <rect id="svg_53" fill="rgba(255,255,255,0)" height="0" width="0" y="0" x="0"/>
  </g>
  <g id="svg_54" transform="matrix(1.0535,0,0,1.0535,53.1111,56.5276) " class="svg-clip svg-visible">
   <rect id="svg_55" class="svg-hitbox" fill="none" height="186" width="187" y="-41.765544" x="-39.867111"/>
   <g id="svg_5">
    <svg y="-41.765544" x="-39.867111" id="svg_56" class="thumb" viewBox="-5.131860901213205,-5,187.0337218024264,186.77" height="186.77" width="187.033722">
     <desc>Created with Snap</desc>

     <g id="svg_57"/>
     <g id="svg_58">
      <circle id="svg_59" fill="url('#linearGradientSk2c5vp98hmr')" r="88.385" cy="88.385" cx="88.385"/>
     </g>
    </svg>
   </g>
  </g>
  <g id="svg_60" transform="matrix(3.6854,0,0,3.6854,28.1566,31.0463) " class="svg-clip svg-visible">
   <rect id="svg_61" class="svg-hitbox" fill="none" height="67" width="67" y="-11.939003" x="-11.39632"/>
   <g id="svg_6">
    <svg y="-11.939003" x="-11.39632" id="svg_62" class="thumb" viewBox="6.5,6.5,67,67" height="67" width="67">
     <desc>Created with Snap</desc>

     <g id="svg_63"/>
     <g id="svg_64">
      <path id="svg_65" fill="url('#linearGradientSk2c5vp98hmc')" d="m40,68.5c-15.7,0 -28.5,-12.8 -28.5,-28.5s12.8,-28.5 28.5,-28.5s28.5,12.8 28.5,28.5s-12.8,28.5 -28.5,28.5zm0,-55c-14.6,0 -26.5,11.9 -26.5,26.5s11.9,26.5 26.5,26.5s26.5,-11.9 26.5,-26.5s-11.9,-26.5 -26.5,-26.5z"/>
     </g>
    </svg>
   </g>
  </g>
  <g id="svg_66" transform="matrix(3.058,0,0,3.058,51.7978,59.3919) " class="svg-clip svg-visible">
   <rect id="svg_67" class="svg-hitbox" fill="none" height="42" width="65" y="-14.388489" x="-13.734467"/>
   <svg y="-14.388489" x="-13.734467" id="svg_68" viewBox="17.250009383212113,29,65.49998123357577,42.099999999999994" height="42.1" width="65.499981">
    <desc>Created with Snap</desc>

    <g id="svg_69"/>
    <g id="svg_70"/>
    <g id="svg_71">
     <path id="svg_72" fill="url('#linearGradientSk2c5vp98hmf')" d="m76.7,61l-23.6,-15l0,1.2l23,14.6c0.8,0.6 0.8,1.4 0.6,2c-0.2,0.6 -0.8,1.2 -1.7,1.2l-49.9,0c-1,0 -1.5,-0.6 -1.7,-1.2c-0.2,-0.6 -0.2,-1.4 0.6,-2l24.9,-15.8c0.5,-0.4 1.1,-0.5 1.7,-0.3l0,-0.3l0,-0.7l0,-2.7l-1.1,0c-2,0 -3.5,-1.6 -3.5,-3.5c0,-2 1.6,-3.5 3.5,-3.5c2,0 3.5,1.6 3.5,3.5l1,0c0,-2.5 -2,-4.5 -4.5,-4.5c-2.5,0 -4.5,2 -4.5,4.5c0,2.5 2,4.5 4.5,4.5l0,1.6c-0.4,0.1 -0.8,0.3 -1.1,0.5l-25.1,15.9c-1.5,1.2 -1.5,3.7 0.7,5.1l52,0c2.2,-1.4 2.2,-3.9 0.7,-5.1z"/>
    </g>
   </svg>
  </g>
  <g id="svg_73" transform="matrix(0.8551,-0.0299,0.0272,0.778,154.018,118.0346) " class="svg-text svg-visible">
   <path id="svg_74" d="m-161.210314,67.528428c93.95,-1 133.95,-1 227.9,0" fill="none"/>
   <path id="svg_75" fill="url('#linearGradientSk2c5vp98hmi')" d="m-110.910314,49.853431l0,0l-0.1,-2.3q-1.6,0.2 -2.5,0.3l0,0q0.4,0.4 0.9,1.2l0,0q0.8,1.2 1.25,1.2q0.45,0 0.45,-0.4zm3,-71.7l0,0l-0.3,17.8q0,18.2 1.7,41.8l0,0q1,0.1 2.85,0.1q1.85,0 3.05,-0.95q1.2,-0.95 1.95,-1.9q0.75,-0.95 1.55,-0.95l0,0q1.8,0 1.8,4l0,0q-1.6,2.3 -4.75,4.6q-3.15,2.3 -5.95,3.4l0,0q0.3,5.7 0.3,9.3q0,3.6 -0.35,4q-0.35,0.4 -1.45,0.95q-1.1,0.55 -1.55,0.55q-0.45,0 -0.6,-0.15q-0.15,-0.15 -1.95,-2.75l0,0q-4.5,-6.8 -7,-10.1l0,0q-7,-0.7 -13.7,-5.1l0,0q0.1,2.6 0.1,6.9l0,0q0,17.6 -10.1,17.6l0,0q-3.8,0 -8.5,-4.3q-4.7,-4.3 -7.5,-8.3q-2.8,-4 -2.8,-4.4l0,0q0,-1.2 1,-2.1l0,0q8.4,-6.7 9.1,-6.7l0,0q0.4,0 2.3,2.85q1.9,2.85 4.65,5.7q2.75,2.85 5.25,2.85l0,0q2,0 2,-6.8l0,0q0,-2.9 -0.4,-6.9l0,0q-6,-5.2 -10,-11.65q-4,-6.45 -4,-9.05q0,-2.6 1.7,-4.8q1.7,-2.2 2.8,-2.2q1.1,0 1.85,0.35q0.75,0.35 1.4,0.85q0.65,0.5 2.25,1.75q1.6,1.25 3.1,2.35l0,0l0,-0.5q-0.1,-2.7 -0.6,-12.8q-0.5,-10.1 -0.5,-22q0,-11.9 0.8,-14.7l0,0q0,-0.7 2.25,-2.5q2.25,-1.8 3.05,-1.8q0.8,0 0.8,1.2l0,0q0,0.1 -0.3,2.6l0,0q-1,10.5 -1,23.55q0,13.05 0.7,31.95l0,0q3.5,3.6 5.85,6.55q2.35,2.95 2.5,3.05q0.15,0.1 0.45,0.35q0.3,0.25 0.75,0.6q0.45,0.35 1.1,0.75q0.65,0.4 1.45,0.85q0.8,0.45 1.8,0.95q1,0.5 2.2,0.9l0,0q2.6,0.9 5.5,1.5l0,0l-1.5,-58q0,-1.4 2.9,-3l0,0q0.8,-0.5 1.2,-0.5l0,0q0.8,0 0.8,2.4zm38.3,60.1l0,0l-0.4,2.8q0,1.8 1.55,3.75q1.55,1.95 3.65,1.95l0,0q1.6,0 2.6,-0.7l0,0q2.2,-1.5 2.75,-2.05q0.55,-0.55 1.8,-0.55q1.25,0 1.25,0.9l0,0q0,1 -4.7,6.3l0,0q-1.5,1.7 -4.4,3.6q-2.9,1.9 -5.15,1.9q-2.25,0 -3.4,-0.75q-1.15,-0.75 -1.65,-2.35l0,0q-0.6,-2.2 -0.6,-5.4l0,0q0,-0.4 -0.5,-0.4q-0.5,0 -2.3,2l0,0q-5.6,5.8 -9.05,5.8q-3.45,0 -5.3,-1.8q-1.85,-1.8 -1.85,-4.6l0,0q0,-4.9 2.6,-9.35q2.6,-4.45 6.2,-7.15l0,0q8,-5.9 12.4,-5.9l0,0q6.6,0.2 6.6,4.7l0,0q0,1.6 -1.4,3.15q-1.4,1.55 -2.6,1.55q-1.2,0 -3.3,-2.1q-2.1,-2.1 -4.6,-2.1q-2.5,0 -4.1,2.05q-1.6,2.05 -1.6,5.25l0,0q0,5.2 5.5,5.2l0,0q2.2,0 3.65,-1.1q1.45,-1.1 2.05,-2.4l0,0q1.7,-3.4 3.1,-3.4l0,0q1.2,0 1.2,1.2zm11.1,4.2l0,0q0,-1.6 3.1,-5.25q3.1,-3.65 5.05,-3.65q1.95,0 2.9,1.5q0.95,1.5 1.15,3.3q0.2,1.8 1.15,3.3q0.95,1.5 2.8,1.5q1.85,0 3.3,-1.65q1.45,-1.65 2.35,-3.7q0.9,-2.05 2.4,-3.7q1.5,-1.65 2.95,-1.65q1.45,0 2.05,1.2l0,0q6.2,13.3 12.6,13.3l0,0q1,0 1.8,-0.3q0.8,-0.3 1.2,-0.3l0,0q1.2,0 1.2,1.9l0,0q0,3.4 -3.55,6.1q-3.55,2.7 -7.25,2.7q-3.7,0 -6.25,-2.4q-2.55,-2.4 -3.5,-4.95q-0.95,-2.55 -1.4,-4.95q-0.45,-2.4 -0.95,-2.4l0,0q-0.8,0 -3.15,3.15q-2.35,3.15 -5.3,6.35q-2.95,3.2 -5.25,3.2l0,0q-2.4,-0.3 -3.8,-2.35q-1.4,-2.05 -1.8,-4.25l0,0q-0.9,-6 -3.8,-6zm65.2,18.3q-3.1,4.6 -4,8.2q-0.9,3.6 -0.9,8.6q0,5 2.7,5.3l0,0q2.3,0 2.3,-14.2l0,0q0,-4.9 -0.1,-7.9l0,0zm0,-3.5l0,0q-0.2,-3.2 -0.2,-9.8l0,0q-0.2,0 -1.45,1.25q-1.25,1.25 -2.8,2.7q-1.55,1.45 -3.9,2.7q-2.35,1.25 -5.45,1.25q-3.1,0 -5.05,-1.9q-1.95,-1.9 -1.95,-5.1l0,0q0,-6.9 6.75,-14.25q6.75,-7.35 14.75,-7.35l0,0q2.5,0 4.05,1.15q1.55,1.15 1.55,2.95l0,0q0,1.6 -1.2,3l0,0q-2.1,2.4 -5.3,2.4l0,0q-1.2,0 -1.2,-0.7l0,0q0,-0.4 0.25,-0.9q0.25,-0.5 0.25,-1.3l0,0q0,-2 -1.9,-2l0,0q-3.1,0 -5.2,2.7q-2.1,2.7 -2.1,5.3q0,2.6 1.25,3.85q1.25,1.25 2.85,1.25q1.6,0 3.7,-1.5q2.1,-1.5 2.7,-3.4l0,0q0.7,-2.6 3.1,-2.6l0,0q0.9,0 0.9,1.35q0,1.35 -0.65,3.7q-0.65,2.35 -0.9,4.2q-0.25,1.85 -0.25,7.85l0,0q6.1,-7.2 11.1,-11.8l0,0q1.1,-1.1 2.2,-1.1q1.1,0 1.1,0.75q0,0.75 -1.1,1.75l0,0q-8.7,7.9 -13.2,13.5l0,0q0.2,7.2 0.2,11.7l0,0q0,12.3 -1.85,19.75q-1.85,7.45 -7.05,7.45l0,0q-3.3,0 -5.1,-3.15q-1.8,-3.15 -1.8,-8.55l0,0q0,-10.9 12.9,-27.1zm18.8,-17.7q1.7,-0.6 3.45,-3.85q1.75,-3.25 1.75,-5.35q0,-2.1 -1.6,-2.2l0,0q-2.4,0 -3.4,2.15q-1,2.15 -1,4.7q0,2.55 0.8,4.55l0,0zm8.6,6.5l0,0q2.8,0 4.65,-1.25q1.85,-1.25 3.5,-3.25q1.65,-2 2.6,-2q0.95,0 0.95,0.9l0,0q0,0.6 -0.4,1.4l0,0q-3.3,5.3 -8.2,9.35q-4.9,4.05 -10.4,4.05q-5.5,0 -7.95,-2.65q-2.45,-2.65 -2.45,-7.05l0,0q0,-7.6 5.7,-15.55q5.7,-7.95 11.8,-7.95l0,0q3.2,0 3.2,2.6l0,0q0,3.5 -2.2,7.25q-2.2,3.75 -8.1,10.15l0,0q2.7,4 7.3,4zm12.1,-8.1l0,0l-2.7,0.2q-1.8,0 -1.8,-0.9l0,0q0,-1.4 3.55,-5.35q3.55,-3.95 6.35,-3.95l0,0q1.2,0 2.15,0.7q0.95,0.7 1.05,1.7l0,0l0.5,4.5q0.3,0.4 0.6,0.4q0.3,0 1.6,-1.6l0,0q4.2,-4.9 7.5,-4.9l0,0q1.3,0 2.1,0.4q0.8,0.4 1.85,1.55q1.05,1.15 1.15,1.25l0,0q0.7,-0.3 1.4,-0.3l0,0q1.1,0 1.1,1.35q0,1.35 -3.9,5q-3.9,3.65 -5.8,3.65q-1.9,0 -3.2,-1.7q-1.3,-1.7 -1.9,-1.7l0,0q-2.3,0 -2.3,2.4l0,0q0,1.8 1.65,6.1q1.65,4.3 1.65,5.1l0,0q0,2 -2.05,3.15q-2.05,1.15 -4.5,1.15q-2.45,0 -3.95,-0.8q-1.5,-0.8 -1.5,-2.2l0,0l2.8,-12.1q0,-3.1 -3.4,-3.1z"/>
   <rect id="svg_76" height="0" width="0" y="-58.371572" x="-47.260314"/>
  </g>
  <g id="svg_77" transform="matrix(0.2864,-0.01,0.012,0.3447,147.3638,207.0111) " class="svg-text svg-visible">
   <path id="svg_78" d="m-284.178154,-46.041463c123.05,-1 163.05,-1 286.1,0" fill="none"/>
   <path id="svg_79" fill="url('#linearGradientSk2c5vp98hml')" d="m-250.978154,-77.866461l-14.2,0l0,25.4l-14,0l0,-64.7l29.2,0l0,12.1l-15.2,0l0,15.5l14.2,0l0,11.7zm33.5,-19.8l0,-3.6l11.3,0l0,48.8l-11.3,0l0,-3.6q-3.1,4.6 -10.3,4.6l0,0l-2.1,0q-12.4,0 -12.4,-13.2l0,0l0,-24.4q0,-13.2 12.4,-13.2l0,0l2.1,0q7.2,0 10.3,4.6l0,0zm-2.1,34.6l0,0l0,-27.6q0,-0.8 -0.55,-1.4q-0.55,-0.6 -1.35,-0.6l0,0l-5.5,0q-0.8,0 -1.35,0.6q-0.55,0.6 -0.55,1.4l0,0l0,27.6q0,0.8 0.55,1.4q0.55,0.6 1.35,0.6l0,0l5.5,0q0.8,0 1.35,-0.6q0.55,-0.6 0.55,-1.4zm35.2,-20l10.3,0q12.4,0 12.4,13.2l0,0l0,5.2q0,13.2 -12.4,13.2l0,0l-11.1,0q-12.4,0 -12.4,-13.2l0,0l0,-3.1l12.4,0l0,4.4q0,0.8 0.55,1.4q0.55,0.6 1.35,0.6l0,0l8.2,0q0.8,0 1.35,-0.6q0.55,-0.6 0.55,-1.4l0,0l0,-6q0,-0.8 -0.55,-1.4q-0.55,-0.6 -1.35,-0.6l0,0l-10.3,0q-12.4,0 -12.4,-13.2l0,0l0,-4.5q0,-13.2 12.4,-13.2l0,0l10.5,0q12.4,0 12.4,13.2l0,0l0,1.8l-12.4,0l0,-3.1q0,-0.8 -0.55,-1.4q-0.55,-0.6 -1.35,-0.6l0,0l-7.6,0q-0.8,0 -1.35,0.6q-0.55,0.6 -0.55,1.4l0,0l0,5.3q0,0.8 0.55,1.4q0.55,0.6 1.35,0.6l0,0zm44,-7.8l0,38.4l-13.4,0l0,-64.7l13.4,0l0,17.3q3,-2.4 8.2,-2.4l0,0l2.1,0q12.4,0 12.4,13.2l0,0l0,36.6l-13.4,0l0,-38.2q0,-0.8 -0.55,-1.4q-0.55,-0.6 -1.35,-0.6l0,0l-5.5,0q-1.7,0 -1.9,1.8l0,0zm45.45,-16.5q-2.15,2.1 -5.15,2.1q-3,0 -5.2,-2.15q-2.2,-2.15 -2.2,-5.2q0,-3.05 2.2,-5.2q2.2,-2.15 5.2,-2.15q3,0 5.15,2.15q2.15,2.15 2.15,5.25q0,3.1 -2.15,5.2zm1.55,54.9l-13.4,0l0,-48.8l13.4,0l0,48.8zm45.5,-36.6l0,0l0,24.4q0,13.2 -12.4,13.2l0,0l-11.3,0q-12.4,0 -12.4,-13.2l0,0l0,-24.4q0,-13.2 12.4,-13.2l0,0l11.3,0q12.4,0 12.4,13.2zm-13.4,27.2l0,0l0,-30.1q0,-0.8 -0.55,-1.4q-0.55,-0.6 -1.35,-0.6l0,0l-5.5,0q-0.8,0 -1.35,0.6q-0.55,0.6 -0.55,1.4l0,0l0,30.1q0,0.8 0.55,1.4q0.55,0.6 1.35,0.6l0,0l5.5,0q0.8,0 1.35,-0.6q0.55,-0.6 0.55,-1.4zm35.9,-28.8l0,38.2l-13.4,0l0,-48.8l12.2,0l0,2.5q3.1,-3.5 9.4,-3.5l0,0l2.1,0q12.4,0 12.4,13.2l0,0l0,36.6l-13.4,0l0,-38.2q0,-0.8 -0.55,-1.4q-0.55,-0.6 -1.35,-0.6l0,0l-5.5,0q-0.8,0 -1.35,0.6q-0.55,0.6 -0.55,1.4l0,0z"/>
   <rect id="svg_80" height="0" width="0" y="-131.741463" x="-141.128154"/>
  </g>
  <g id="svg_81">
   <rect id="svg_82" stroke="#ff8800" fill="rgba(255,136,0,0.1)" height="0" width="0" y="287" x="710"/>
  </g>
  <g id="svg_83" class="selector-part">
   <rect id="svg_84" stroke="#3399ff" fill="rgba(168,202,236,0.5)" height="0" width="0" y="0" x="0"/>
  </g>
 </g>
</svg>